<svg width="40" height="40" viewBox="0 0 40 40" fill="none" xmlns="http://www.w3.org/2000/svg">
<path d="M14.375 16.25C14.2092 16.25 14.0503 16.1842 13.9331 16.0669C13.8158 15.9497 13.75 15.7908 13.75 15.625V15C13.75 13.6739 13.2232 12.4021 12.2855 11.4645C11.3479 10.5268 10.0761 10 8.75 10C7.42392 10 6.15215 10.5268 5.21447 11.4645C4.27678 12.4021 3.75 13.6739 3.75 15V15.625C3.75 15.7908 3.68415 15.9497 3.56694 16.0669C3.44973 16.1842 3.29076 16.25 3.125 16.25C2.95924 16.25 2.80027 16.1842 2.68306 16.0669C2.56585 15.9497 2.5 15.7908 2.5 15.625V15C2.5 13.3424 3.15848 11.7527 4.33058 10.5806C5.50269 9.40848 7.0924 8.75 8.75 8.75C9.57076 8.75 10.3835 8.91166 11.1418 9.22575C11.9001 9.53984 12.5891 10.0002 13.1694 10.5806C13.7498 11.1609 14.2102 11.8499 14.5242 12.6082C14.8383 13.3665 15 14.1792 15 15V15.625C15 15.7908 14.9342 15.9497 14.8169 16.0669C14.6997 16.1842 14.5408 16.25 14.375 16.25ZM14.375 38.75H3.125C2.95924 38.75 2.80027 38.6842 2.68306 38.5669C2.56585 38.4497 2.5 38.2908 2.5 38.125V18.125C2.5 17.9592 2.56585 17.8003 2.68306 17.6831C2.80027 17.5658 2.95924 17.5 3.125 17.5C3.29076 17.5 3.44973 17.5658 3.56694 17.6831C3.68415 17.8003 3.75 17.9592 3.75 18.125V37.5H13.75V23.75C13.75 23.5842 13.8158 23.4253 13.9331 23.3081C14.0503 23.1908 14.2092 23.125 14.375 23.125C14.5408 23.125 14.6997 23.1908 14.8169 23.3081C14.9342 23.4253 15 23.5842 15 23.75V38.125C15 38.2908 14.9342 38.4497 14.8169 38.5669C14.6997 38.6842 14.5408 38.75 14.375 38.75ZM14.375 21.1875C14.2092 21.1875 14.0503 21.1217 13.9331 21.0044C13.8158 20.8872 13.75 20.7283 13.75 20.5625V18.125C13.75 17.9592 13.8158 17.8003 13.9331 17.6831C14.0503 17.5658 14.2092 17.5 14.375 17.5C14.5408 17.5 14.6997 17.5658 14.8169 17.6831C14.9342 17.8003 15 17.9592 15 18.125V20.5625C15 20.7283 14.9342 20.8872 14.8169 21.0044C14.6997 21.1217 14.5408 21.1875 14.375 21.1875Z" fill="black"/>
<path d="M15.625 18.75H1.875C1.70924 18.75 1.55027 18.6842 1.43306 18.5669C1.31585 18.4497 1.25 18.2908 1.25 18.125V15.625C1.25 15.4592 1.31585 15.3003 1.43306 15.1831C1.55027 15.0658 1.70924 15 1.875 15H15.625C15.7908 15 15.9497 15.0658 16.0669 15.1831C16.1842 15.3003 16.25 15.4592 16.25 15.625V18.125C16.25 18.2908 16.1842 18.4497 16.0669 18.5669C15.9497 18.6842 15.7908 18.75 15.625 18.75ZM2.5 17.5H15V16.25H2.5V17.5ZM35.625 38.75H14.375C14.2092 38.75 14.0503 38.6842 13.9331 38.5669C13.8158 38.4497 13.75 38.2908 13.75 38.125V23.75C13.75 23.5842 13.8158 23.4253 13.9331 23.3081C14.0503 23.1908 14.2092 23.125 14.375 23.125C14.5408 23.125 14.6997 23.1908 14.8169 23.3081C14.9342 23.4253 15 23.5842 15 23.75V37.5H35V23.75C35 23.5842 35.0658 23.4253 35.1831 23.3081C35.3003 23.1908 35.4592 23.125 35.625 23.125C35.7908 23.125 35.9497 23.1908 36.0669 23.3081C36.1842 23.4253 36.25 23.5842 36.25 23.75V38.125C36.25 38.2908 36.1842 38.4497 36.0669 38.5669C35.9497 38.6842 35.7908 38.75 35.625 38.75Z" fill="black"/>
<path d="M30.625 38.75C30.4592 38.75 30.3003 38.6842 30.1831 38.5669C30.0658 38.4497 30 38.2908 30 38.125V31.25H20V38.125C20 38.2908 19.9342 38.4497 19.8169 38.5669C19.6997 38.6842 19.5408 38.75 19.375 38.75C19.2092 38.75 19.0503 38.6842 18.9331 38.5669C18.8158 38.4497 18.75 38.2908 18.75 38.125V30.625C18.75 30.4592 18.8158 30.3003 18.9331 30.1831C19.0503 30.0658 19.2092 30 19.375 30H30.625C30.7908 30 30.9497 30.0658 31.0669 30.1831C31.1842 30.3003 31.25 30.4592 31.25 30.625V38.125C31.25 38.2908 31.1842 38.4497 31.0669 38.5669C30.9497 38.6842 30.7908 38.75 30.625 38.75Z" fill="black"/>
<path d="M25 38.75C24.8342 38.75 24.6753 38.6842 24.5581 38.5669C24.4408 38.4497 24.375 38.2908 24.375 38.125V30.625C24.375 30.4592 24.4408 30.3003 24.5581 30.1831C24.6753 30.0658 24.8342 30 25 30C25.1658 30 25.3247 30.0658 25.4419 30.1831C25.5592 30.3003 25.625 30.4592 25.625 30.625V38.125C25.625 38.2908 25.5592 38.4497 25.4419 38.5669C25.3247 38.6842 25.1658 38.75 25 38.75ZM19.375 34.375H14.375C14.2092 34.375 14.0503 34.3092 13.9331 34.1919C13.8158 34.0747 13.75 33.9158 13.75 33.75C13.75 33.5842 13.8158 33.4253 13.9331 33.3081C14.0503 33.1908 14.2092 33.125 14.375 33.125H19.375C19.5408 33.125 19.6997 33.1908 19.8169 33.3081C19.9342 33.4253 20 33.5842 20 33.75C20 33.9158 19.9342 34.0747 19.8169 34.1919C19.6997 34.3092 19.5408 34.375 19.375 34.375ZM35.625 34.375H30.625C30.4592 34.375 30.3003 34.3092 30.1831 34.1919C30.0658 34.0747 30 33.9158 30 33.75C30 33.5842 30.0658 33.4253 30.1831 33.3081C30.3003 33.1908 30.4592 33.125 30.625 33.125H35.625C35.7908 33.125 35.9497 33.1908 36.0669 33.3081C36.1842 33.4253 36.25 33.5842 36.25 33.75C36.25 33.9158 36.1842 34.0747 36.0669 34.1919C35.9497 34.3092 35.7908 34.375 35.625 34.375ZM21.25 28.75H18.75C18.5842 28.75 18.4253 28.6842 18.3081 28.5669C18.1908 28.4497 18.125 28.2908 18.125 28.125V24.375C18.125 24.2092 18.1908 24.0503 18.3081 23.9331C18.4253 23.8158 18.5842 23.75 18.75 23.75H21.25C21.4158 23.75 21.5747 23.8158 21.6919 23.9331C21.8092 24.0503 21.875 24.2092 21.875 24.375V28.125C21.875 28.2908 21.8092 28.4497 21.6919 28.5669C21.5747 28.6842 21.4158 28.75 21.25 28.75ZM19.375 27.5H20.625V25H19.375V27.5ZM31.25 28.75H28.75C28.5842 28.75 28.4253 28.6842 28.3081 28.5669C28.1908 28.4497 28.125 28.2908 28.125 28.125V24.375C28.125 24.2092 28.1908 24.0503 28.3081 23.9331C28.4253 23.8158 28.5842 23.75 28.75 23.75H31.25C31.4158 23.75 31.5747 23.8158 31.6919 23.9331C31.8092 24.0503 31.875 24.2092 31.875 24.375V28.125C31.875 28.2908 31.8092 28.4497 31.6919 28.5669C31.5747 28.6842 31.4158 28.75 31.25 28.75ZM29.375 27.5H30.625V25H29.375V27.5Z" fill="black"/>
<path d="M36.875 24.9993C36.7724 24.9988 36.6715 24.9731 36.5812 24.9243L25 18.8306L13.4187 24.9243C13.3446 24.9641 13.2632 24.9884 13.1795 24.9959C13.0957 25.0034 13.0113 24.994 12.9313 24.9681C12.8533 24.9424 12.7811 24.9015 12.7189 24.8479C12.6567 24.7943 12.6057 24.7289 12.5688 24.6556L11.3188 22.1556C11.2442 22.0088 11.2305 21.8384 11.2809 21.6816C11.3312 21.5247 11.4414 21.3941 11.5875 21.3181L24.7125 14.4431C24.8013 14.3971 24.8999 14.373 25 14.373C25.1001 14.373 25.1987 14.3971 25.2875 14.4431L38.4125 21.3181C38.5586 21.3941 38.6688 21.5247 38.7191 21.6816C38.7695 21.8384 38.7558 22.0088 38.6813 22.1556L37.4313 24.6556C37.3943 24.7289 37.3433 24.7943 37.2811 24.8479C37.2189 24.9015 37.1467 24.9424 37.0688 24.9681C37.006 24.9876 36.9407 24.9981 36.875 24.9993ZM25 17.4993C25.1026 17.4999 25.2035 17.5256 25.2938 17.5743L36.6 23.5243L37.2937 22.1431L25 15.7056L12.7063 22.1431L13.4 23.5243L24.7062 17.5743C24.7965 17.5256 24.8974 17.4999 25 17.4993ZM14.375 26.8743H3.125C2.95924 26.8743 2.80027 26.8085 2.68306 26.6913C2.56585 26.5741 2.5 26.4151 2.5 26.2493C2.5 26.0836 2.56585 25.9246 2.68306 25.8074C2.80027 25.6902 2.95924 25.6243 3.125 25.6243H14.375C14.5408 25.6243 14.6997 25.6902 14.8169 25.8074C14.9342 25.9246 15 26.0836 15 26.2493C15 26.4151 14.9342 26.5741 14.8169 26.6913C14.6997 26.8085 14.5408 26.8743 14.375 26.8743ZM14.375 32.4993H3.125C2.95924 32.4993 2.80027 32.4335 2.68306 32.3163C2.56585 32.1991 2.5 32.0401 2.5 31.8743C2.5 31.7086 2.56585 31.5496 2.68306 31.4324C2.80027 31.3152 2.95924 31.2493 3.125 31.2493H14.375C14.5408 31.2493 14.6997 31.3152 14.8169 31.4324C14.9342 31.5496 15 31.7086 15 31.8743C15 32.0401 14.9342 32.1991 14.8169 32.3163C14.6997 32.4335 14.5408 32.4993 14.375 32.4993Z" fill="black"/>
</svg>
