<svg width="26" height="25" viewBox="0 0 26 25" fill="none" xmlns="http://www.w3.org/2000/svg">
<path d="M20.0547 0H6.27738C3.17831 0 0.666016 2.51229 0.666016 5.61136V19.3886C0.666016 22.4877 3.17831 25 6.27738 25H20.0547C23.1537 25 25.666 22.4877 25.666 19.3886V5.61136C25.666 2.51229 23.1537 0 20.0547 0Z" fill="url(#paint0_linear_560_89)"/>
<path d="M9.32468 4.33008H17.1182C17.2914 4.41667 17.5512 4.41667 17.7244 4.50327C18.4844 4.62644 19.195 4.95912 19.7763 5.46394C20.3576 5.96875 20.7866 6.62568 21.015 7.36091C21.1429 7.78459 21.2299 8.21955 21.2748 8.65983V16.2802C21.151 17.246 20.7944 18.1672 20.2357 18.9646C19.7563 19.52 19.1554 19.9574 18.4796 20.2427C17.8037 20.5281 17.0712 20.6537 16.3389 20.61H9.84425C8.68522 20.6662 7.54563 20.2966 6.64023 19.5708C6.08966 19.0951 5.65518 18.4998 5.37001 17.8304C5.08484 17.161 4.95654 16.4353 4.99493 15.7087V9.64702C4.98062 9.21224 5.00963 8.77712 5.08152 8.34809C5.16896 7.46031 5.53399 6.62266 6.12472 5.9542C6.71546 5.28574 7.50184 4.82047 8.37213 4.6245L9.32468 4.33008ZM6.64023 12.5566V15.9338C6.60331 16.3639 6.66084 16.7968 6.80881 17.2023C6.95677 17.6078 7.19158 17.9761 7.4968 18.2813C7.80202 18.5865 8.17026 18.8213 8.57576 18.9693C8.98125 19.1172 9.41419 19.1748 9.84425 19.1378C12.0957 19.2244 14.3472 19.2244 16.5987 19.1378C18.5904 19.1378 19.7161 17.9255 19.8027 15.9338C19.8893 13.6823 19.8893 11.4309 19.8027 9.1794C19.8251 8.75274 19.7576 8.32612 19.6045 7.92722C19.4515 7.52833 19.2162 7.16608 18.9141 6.86396C18.612 6.56184 18.2497 6.32662 17.8508 6.17354C17.452 6.02046 17.0253 5.95295 16.5987 5.97538C14.3472 5.88879 12.0957 5.88879 9.84425 5.97538C9.41419 5.93846 8.98125 5.996 8.57576 6.14396C8.17026 6.29192 7.80202 6.52673 7.4968 6.83195C7.19158 7.13717 6.95677 7.50542 6.80881 7.91091C6.66084 8.3164 6.60331 8.74934 6.64023 9.1794V12.5566Z" fill="#FFF8F3"/>
<path d="M9.01367 12.5908C9.01596 11.4662 9.46374 10.3882 10.259 9.59298C11.0542 8.79772 12.1322 8.34994 13.2568 8.34766C14.3752 8.36981 15.4417 8.82397 16.2327 9.61496C17.0237 10.406 17.4778 11.4724 17.5 12.5908C17.4977 13.7155 17.0499 14.7934 16.2547 15.5887C15.4594 16.3839 14.3815 16.8317 13.2568 16.834C12.1384 16.8118 11.072 16.3577 10.281 15.5667C9.48998 14.7757 9.03583 13.7092 9.01367 12.5908ZM13.2568 9.90637C12.7309 9.89781 12.2143 10.0465 11.7734 10.3334C11.3325 10.6203 10.9873 11.0323 10.7821 11.5166C10.5768 12.001 10.5209 12.5356 10.6214 13.0519C10.7219 13.5682 10.9743 14.0428 11.3463 14.4147C11.7183 14.7867 12.1928 15.0391 12.7092 15.1396C13.2255 15.2402 13.7601 15.1842 14.2444 14.979C14.7287 14.7737 15.1408 14.4285 15.4277 13.9876C15.7145 13.5467 15.8632 13.0302 15.8547 12.5042C15.8547 11.8152 15.581 11.1545 15.0938 10.6673C14.6066 10.1801 13.9458 9.90637 13.2568 9.90637Z" fill="#FFF8F3"/>
<path d="M16.5475 8.17453C16.5427 8.03676 16.5662 7.89947 16.6167 7.77121C16.6672 7.64295 16.7436 7.52645 16.8411 7.42898C16.9386 7.3315 17.0551 7.25513 17.1833 7.20463C17.3116 7.15412 17.4489 7.13055 17.5866 7.13538C17.8562 7.15362 18.1101 7.26896 18.3011 7.46002C18.4922 7.65109 18.6075 7.90493 18.6258 8.17453C18.6258 8.45012 18.5163 8.71443 18.3214 8.90931C18.1265 9.10419 17.8622 9.21367 17.5866 9.21367C17.311 9.21367 17.0467 9.10419 16.8519 8.90931C16.657 8.71443 16.5475 8.45012 16.5475 8.17453Z" fill="#FFF8F3"/>
<defs>
<linearGradient id="paint0_linear_560_89" x1="-0.927334" y1="26.3855" x2="28.515" y2="-2.62383" gradientUnits="userSpaceOnUse">
<stop stop-color="#FED576"/>
<stop offset="0.26" stop-color="#F47133"/>
<stop offset="0.61" stop-color="#BC3081"/>
<stop offset="1" stop-color="#4C63D2"/>
</linearGradient>
</defs>
</svg>
