<svg width="20" height="20" viewBox="0 0 20 20" fill="none" xmlns="http://www.w3.org/2000/svg">
<path d="M19.1654 13.7786L17.3795 11.9928C16.8472 11.4647 16.1287 11.167 15.3788 11.1638C14.629 11.1606 13.9079 11.4522 13.3711 11.9757C13.0847 12.2638 12.7068 12.443 12.3025 12.4826C11.8982 12.5221 11.4927 12.4196 11.1559 12.1925C9.82637 11.3052 8.68424 10.1653 7.7944 8.8375C7.5713 8.4969 7.47242 8.08981 7.51441 7.68482C7.5564 7.27983 7.7367 6.90169 8.02494 6.61411C8.54372 6.07679 8.83157 5.35774 8.82686 4.61086C8.82216 3.86398 8.52528 3.14861 7.99977 2.61786L6.21392 0.832012C5.67926 0.299185 4.9552 0 4.20038 0C3.44555 0 2.72149 0.299185 2.18683 0.832012L1.67299 1.34666C-1.00579 4.02544 -0.805285 9.65736 4.76819 15.2276C8.12884 18.5891 11.5114 19.9966 14.2543 19.9966C15.0617 20.0235 15.8664 19.8894 16.6215 19.6022C17.3766 19.315 18.067 18.8803 18.6524 18.3236L19.167 17.809C19.7008 17.2741 20.0005 16.5491 20.0002 15.7935C19.9999 15.0378 19.6996 14.3131 19.1654 13.7786ZM18.0176 16.6611L17.5029 17.1758C15.3924 19.2863 10.7337 18.9008 5.91439 14.0806C1.09502 9.26042 0.70863 4.59853 2.81918 2.48798L3.32977 1.97415C3.55967 1.74508 3.87097 1.61647 4.1955 1.61647C4.52004 1.61647 4.83134 1.74508 5.06124 1.97415L6.84709 3.76C7.0728 3.98684 7.20093 4.29293 7.20411 4.61292C7.2073 4.93292 7.08529 5.24149 6.86413 5.47279C6.31561 6.0248 5.97346 6.74855 5.89498 7.52279C5.81651 8.29702 6.00649 9.0747 6.43309 9.72555C7.44417 11.2386 8.74435 12.5368 10.2589 13.5456C10.9078 13.9723 11.6834 14.1634 12.4563 14.087C13.2291 14.0106 13.9523 13.6714 14.5051 13.126C14.736 12.9022 15.0454 12.7779 15.3669 12.7799C15.6884 12.7819 15.9963 12.9099 16.2244 13.1365L18.0103 14.9224C18.1254 15.0358 18.2169 15.1709 18.2796 15.3198C18.3423 15.4688 18.3749 15.6286 18.3756 15.7902C18.3763 15.9518 18.345 16.112 18.2836 16.2614C18.2221 16.4109 18.1317 16.5467 18.0176 16.6611Z" fill="black"/>
</svg>
